<svg xmlns="http://www.w3.org/2000/svg" viewBox="0 0 277.92 215.05"><defs><style>.cls-1{isolation:isolate;}.cls-2{fill:#386b57;}.cls-3{fill:#b1e0b2;}.cls-4{fill:#5c995c;}.cls-5{fill:#76995c;}.cls-6{fill:#5a7c40;}.cls-7{fill:#5c9984;}.cls-8{fill:#407c67;}.cls-9{mix-blend-mode:multiply;}.cls-10{fill:#fff;}.cls-11{fill:#dd855e;}.cls-12{fill:#f4ee82;}.cls-13{fill:#71875f;}.cls-14{fill:#b1e0d1;}.cls-15{fill:#edd570;}</style></defs><title>LOGO</title><g class="cls-1"><g id="圖層_2" data-name="圖層 2"><g id="OBJECTS"><ellipse class="cls-2" cx="140.92" cy="109.89" rx="137" ry="105.16"/><ellipse class="cls-3" cx="137" cy="105.16" rx="137" ry="105.16"/><path class="cls-4" d="M239.47,52.34c9.44,24,17.85,48.18,19.76,74.12a148.58,148.58,0,0,1-1.43,31.61c-1.37,9.52-5.24,17.7-8.51,26.6-.2.54.6.91,1,.52,12.35-13.27,12-38.18,11.63-55.09-.57-27-11.39-53.47-21.77-77.95-.16-.38-.8-.21-.64.19Z"/><path class="cls-4" d="M250.12,184.7c4.12-8.41,8.16-15.24,9.61-24.6a96.26,96.26,0,0,0-.06-26.59c-2.47-19.37-9.68-35-19.76-51.37-.16-.26-.51,0-.39.24,3.57,7.93,8.11,15.34,11.22,23.48,2.95,7.72,4.58,16.31,6.13,24.41,1.67,8.69,1.71,17.57,1.18,26.37-.62,10.19-5,18.37-8.67,27.65-.2.49.49.91.74.41Z"/><path class="cls-4" d="M260.8,155.94c4-18.8,4.79-39.43,4-58.57-.79-20-5.91-38.32-16.46-55.49-.27-.44-1-.13-.85.38,3.07,8,7.2,15.47,10.22,23.48,3.82,10.1,4.51,21,4.94,31.66a244.25,244.25,0,0,1-.78,29c-.76,9.7-.45,19.71-2.06,29.29-.1.62.82.86.95.24Z"/><path class="cls-4" d="M256.11,97.54c1-14-3.09-31.29-9.76-43.57a.33.33,0,0,0-.6.26c4.27,13.65,9.21,29,9.33,43.33,0,.67,1,.63,1,0Z"/><path class="cls-4" d="M264.66,117.8c7.37-19,7.34-37.25,4.92-57.21a.41.41,0,0,0-.82,0c-.16,8.6.58,17.19.46,25.79-.15,10.36-2.84,21.19-5.66,31.13-.2.72.84.93,1.1.28Z"/><path class="cls-4" d="M259,139.35c-2.82-12.64-9.75-24.51-15.13-36.19-.24-.53-1-.11-.88.39,2.36,12.76,10.82,23.92,15.22,36a.41.41,0,0,0,.79-.23Z"/><path class="cls-4" d="M251.79,40.44A3.88,3.88,0,1,1,247,37.78,3.88,3.88,0,0,1,251.79,40.44Z"/><path class="cls-4" d="M273,60.57a3.88,3.88,0,1,1-4.81-2.65A3.88,3.88,0,0,1,273,60.57Z"/><path class="cls-4" d="M251.43,53.18a3.88,3.88,0,1,1-4.81-2.66A3.88,3.88,0,0,1,251.43,53.18Z"/><path class="cls-4" d="M243.12,49.77a3.88,3.88,0,1,1-4.81-2.65A3.88,3.88,0,0,1,243.12,49.77Z"/><path class="cls-4" d="M244.83,81.88A3.88,3.88,0,1,1,240,79.22,3.9,3.9,0,0,1,244.83,81.88Z"/><path class="cls-4" d="M247.37,102.88a3.89,3.89,0,1,1-4.82-2.65A3.9,3.9,0,0,1,247.37,102.88Z"/><path class="cls-5" d="M254.76,161a.23.23,0,0,0-.18.06c-6.85,5.37-16.38,5.36-24.58,4.28-7.15-.94-14.09-3.4-21.22-.78-5,1.84-11.42,5.43-12.42,11.27a16.08,16.08,0,0,0,1.13,8.74c.09.24,2.41,4,3.6,4.92a22.07,22.07,0,0,0-5.07,4.19c-.35.41.25,1.09.7.8,1.82-1.18,3.6-2.27,5.4-3.26,4.22,6.31,8.59,11.75,16.21,13.81,6,1.62,12.39.07,17.76-2.65,14.18-7.21,18.35-26.77,19.41-41.23C255.54,160.72,254.93,160.63,254.76,161Z"/><path class="cls-6" d="M248.21,168.7c-7.66,7.61-19.84,10.24-29.82,13.29-8.4,2.58-21.11,5.52-25.46,14a.86.86,0,0,0,1.27,1.12c4.64-3.32,8.73-6.46,14.06-8.71s10.84-3.76,16.27-5.55c9.39-3.08,16.84-7,24.22-13.53.39-.36-.17-1-.54-.62Z"/><path class="cls-6" d="M218.43,169.3c-6.25,4.9-15.52,12.51-17.85,20.44a.46.46,0,0,0,.73.49c2.89-2.61,4.81-6.41,7.15-9.53a69.44,69.44,0,0,1,10.3-11c.24-.2-.08-.57-.33-.37Z"/><path class="cls-6" d="M221.47,182.32c-2.12,2-4.32,3.91-6.41,6-1.57,1.53-3.55,3.07-4.08,5.27,0,.22.16.49.4.35,1.89-1.11,3-3.14,4.42-4.77,1.94-2.19,4-4.28,6-6.39.24-.25-.09-.65-.35-.41Z"/><path class="cls-6" d="M239.82,170.3c-2.75,1.86-7.18,5.2-7.74,8.7,0,.19.2.25.32.16a17.18,17.18,0,0,0,3.18-3.56,62.64,62.64,0,0,1,4.53-5,.22.22,0,0,0-.29-.33Z"/><path class="cls-6" d="M242.13,177.13a25.64,25.64,0,0,1-6,.26c-1.33,0-3.19-.07-4,1.1a.27.27,0,0,0,.07.39c1.27.71,3.17.14,4.53-.09a30,30,0,0,0,5.53-1.37c.17-.06.08-.32-.09-.29Z"/><path class="cls-6" d="M241.22,185.09a89.74,89.74,0,0,1-12.48.65,45.7,45.7,0,0,1-5.6-.51c-2.62-.38-4.63-1.88-7.23-1.7-.32,0-.63.4-.34.69,6.24,6.12,18.31,2.6,25.69,1.09.14,0,.09-.23,0-.22Z"/><path class="cls-6" d="M235.16,194.11a51,51,0,0,1-32.06-4.69c-.58-.3-1.41.22-1,.91,2.12,4,9.21,4.2,13.31,4.82,6.53,1,13.47,1.07,19.85-.75a.15.15,0,0,0-.06-.29Z"/><path class="cls-7" d="M11.84,147c3.93-6.63,11.11,2.48,15.08,8.46A154.34,154.34,0,0,1,19.39,134a.55.55,0,0,1-.38-.11c-1.16-1-2-.77-3.3-.83A9.29,9.29,0,0,1,11,130.8c-2.08-1.64-3-5.62-1-7.37,1.84-1.58,4.27-.52,6.27,1.52-2.07-2.25-4.08-4.89-4.84-7.88-.69-2.71,1-5.93,3.71-5.49a6.08,6.08,0,0,1,5,5.91c0,2.66-1.79,4.79-2.25,7.23a6.68,6.68,0,0,1,.2.8.91.91,0,0,1,0,.17q.43,1.55.9,3.09a9.64,9.64,0,0,1,.95,3.13c.86,2.75,1.78,5.49,2.77,8.2-.07-4.74,1.12-10.19,6-8.61a6.85,6.85,0,0,1,4.61,8,4.5,4.5,0,0,1-3,3.58,12.49,12.49,0,0,1-3.18.17,6.15,6.15,0,0,0-3,.77,151.63,151.63,0,0,0,10,21c.28.47.56.94.85,1.41-1.31-5.29-1.23-11,3-12.92,3.87-1.78,8.34,2.29,9.26,6.55a7.14,7.14,0,0,1-2,6.48,10.47,10.47,0,0,1-3.48,1.94c-1.84.77-2.43,1.83-3.12,3.54a81,81,0,0,0,9.49,11.18,53.59,53.59,0,0,0,8.58,6.63,35,35,0,0,1-4.39-9.13c-1.69-5.32-1.1-10.46,2.14-14.17s8.91.63,10.22,5a15.77,15.77,0,0,1-.27,9.81c-1.23,3.88-4.23,6.86-2.85,11.49,0,0,0,0,0,0,1.32.83,2.64,1.67,4,2.56.33.22.11.75-.22.69-5.07-.91-10-3.64-14.45-7.32-4.45,2-5.25,10.37-11.43,9.19-3.58-.69-7.46-3.67-7.59-8.12s1.87-7.31,5.72-8.2c2.36-.54,4.88.21,7.32,1.48a95.44,95.44,0,0,1-11.6-15.56c-1.3-2.14-2.5-4.33-3.63-6.55a.8.8,0,0,1-.32-.14c-2.3-1.63-5.76.51-8.31.54a12.41,12.41,0,0,1-7-1.77C9.38,156.74,9.48,151,11.84,147Z"/><path class="cls-8" d="M15.09,115.11c2.61,8.19,5.67,16.29,8.32,24.48,2.79,8.56,5.89,16.75,10.52,24.51a109.14,109.14,0,0,0,15.69,19.84,41.47,41.47,0,0,0,9.17,7.21c2.58,1.48,5.39,2.14,7.72,4.17.51.45.38,1.37-.26,1.42-5.3.41-11.57-4.36-15.8-8.05-6.34-5.54-12-12.75-16.82-19.87-11-16.24-14.66-35-18.85-53.63a.16.16,0,0,1,.31-.08Z"/><path class="cls-8" d="M55.3,176a55.18,55.18,0,0,0,2.54,9.78c1.12,2.95,3.26,5,4.49,7.74.16.36-.1.88-.49.75-5.71-1.93-6.41-13.23-7-18.22a.25.25,0,1,1,.49-.05Z"/><path class="cls-8" d="M37.47,190.81c3.57-4.06,10.69-6.39,15.63-1.69a.33.33,0,0,1-.11.58c-1.87.32-3.61-.72-5.49-1.21a10.13,10.13,0,0,0-9.71,2.74c-.23.22-.52-.2-.32-.42Z"/><path class="cls-8" d="M38.67,159.22a13.55,13.55,0,0,0-1.38,7.43c.24,2.29,1.41,4.37,1.55,6.63,0,.32-.26.56-.53.33-4.39-3.62-2.13-11.14,0-14.68.14-.23.44,0,.33.29Z"/><path class="cls-8" d="M18.21,150.35c5.21,2,10.2,4,11.78,10.43a.16.16,0,0,1-.29.12c-2.7-4.53-7.25-8.07-11.57-10.3-.16-.08-.08-.31.08-.25Z"/><path class="cls-8" d="M27.36,134a13.3,13.3,0,0,0-2.52,4.75c-.57,1.9-.35,4-.65,6,0,.2-.25.22-.36,0-2.42-4.45.34-8.69,3.22-11.11.17-.15.47.14.31.33Z"/><path class="cls-8" d="M12.74,124.37a18.07,18.07,0,0,1,8,11.18.22.22,0,0,1-.4.18c-2.49-3.65-4.51-8.16-7.8-11-.16-.14,0-.44.15-.32Z"/><g class="cls-9"><path class="cls-3" d="M201.05,65.19c-2.62,2.86-5.09,6.09-8.53,8a31.44,31.44,0,0,0,.32-12.52c-.52-2.79-2.43-7.5-5.91-7.28s-5.28,4.94-6.13,7.7a14.9,14.9,0,0,0,1.46,12.58,9.3,9.3,0,0,0,4.29,3.58c-1.66,2.18-4.33,4.33-6.84,2.9-2.9-1.64-3.16-6.33-3-9.22.08-1.8,1-3.85,1.35-5.65.4-2.13.57-4.51,1.77-6.32,2.55-3.86-3.17-8.16-6.32-4.9-3.86,4-3.68,9.83-2.68,14.93l-.12.26A27.08,27.08,0,0,1,165,77.57a10,10,0,0,1-1.84,1.37,4.38,4.38,0,0,1-.82.11,2.93,2.93,0,0,1-1.9-.61c-.84-1.37-1.84-2.61-2.64-4.07-1.48-2.7-.58-6.83-.38-9.75q.14-1.89.21-3.78c.43-.54.87-1.07,1.34-1.6a48.25,48.25,0,0,0,9.84-16.7c2-5.78,6.09-23.08-3.78-24.4-4.83-.64-8.37,4.42-10.13,8.23-3,6.55-4.17,13.8-5,20.91A85.28,85.28,0,0,0,149.65,69l.06.38c-.92,1.69-1.91,3.34-3,4.95-.16.26-.33.51-.5.77l-.13.15c-2.65,3.4-6.61,5.87-9.56.86-1-1.63-.91-3.84-1-5.66-.24-3.31.09-6.68,0-10v-.69c.65-.76,1.33-1.51,2-2.26,7.17-8,12.64-19.88,11.45-30.89-.39-3.6-2.52-8-6.84-7.42-3.9.51-6.41,5.15-8.13,8.25-6.84,12.35-7.31,26.69-6.85,40.5a20.7,20.7,0,0,0,.22,2.36c-2,3.3-4.07,6.68-7.12,9-1.57.23-3.09.41-4.44-.81-.69-.63-.82-2.21-1.09-3a8.49,8.49,0,0,1-.37-1.87,10.07,10.07,0,0,0,1.88-1.2c3.16-2.57,5.1-6.16,6.51-9.91,1.23-3.26,1.53-8.19-1.1-10.93s-5.71-1.28-7.91,1c-4.94,5.08-7.69,13.3-7.83,20.25-.11,4.77,1.65,9.2,6.29,10.62,8.92,2.72,14.25-8.05,15.69-10.65a18.63,18.63,0,0,0,3.47,6.75c2.13,2.62,6.23,4.82,9.35,3.23a15.3,15.3,0,0,0,5.11-4.14l.08-.11a38,38,0,0,0,4.45-6.35c1.12,3.7,2.94,7.18,6.29,9,1.7,1.52,4.45,1.93,7.37.51,3.53-1.7,5.76-6,7.48-9.38a24.43,24.43,0,0,0,3.38,9,8,8,0,0,0,10.65,2.52,12.83,12.83,0,0,0,5.35-5.85,9.25,9.25,0,0,0,3.87-1.29c3.8-2.28,5.76-6.89,7.29-10.82C202.24,65.21,201.43,64.78,201.05,65.19Zm-83.56-11.8c1.73-1.29,2.49.79,2.8,2.14.4,1.71-.22,3.58-.73,5.2A19.91,19.91,0,0,1,115,68.39a11.39,11.39,0,0,1-.86.8c.06-3.4.54-6.91.91-10.19C115.3,57.13,115.88,54.59,117.49,53.39Zm45.32-26.75c.44-1.25,1.1-3.44,2.69-3.45,2.07,0,2.48,3.64,2.61,5,.46,5.27-1.17,11-3,15.87a53.5,53.5,0,0,1-7.37,12.75,101.36,101.36,0,0,1,.93-12.62A100.12,100.12,0,0,1,162.81,26.64Zm-26.92,24c.26-3.26.72-6.52,1.22-9.75s.62-6.64,1.1-9.93a20.09,20.09,0,0,1,1.57-6.32c1.12-2.25,3.63-3.49,5.26-1,2.2,3.34,1,8.84.47,12.52a46.76,46.76,0,0,1-7.38,18.81c-.85,1.24-1.73,2.45-2.62,3.65C135.52,55.9,135.67,53.24,135.89,50.59Zm50.81,6.23c2.4-2.75,4.06,6,4.1,7.16a20.72,20.72,0,0,1-2.21,9.71c-2.85-1-4.59-5.19-4.68-8.1C183.83,62.87,184.9,58.9,186.7,56.82Z"/><path class="cls-3" d="M104,65.58l-.31,0,.09-.92c.3-2.93,1-5.84,1.19-8.78.14-2.22.78-5.74-.54-7.68a2,2,0,0,0-2.19-.9c-2.67.8-3.32,4.09-3.64,6.51-.4,3-.91,6.06-1.29,9.1-.14,1.21-.25,2.42-.34,3.62-.5.12-1,.24-1.47.34-2.47.48-4.94,1-7.4,1.5,0-.93.09-1.86.15-2.79.28-4.46.64-8.92,1-13.37.37-4.05,3.36-8.3,1.2-12.21a3.38,3.38,0,0,0-4.6-1.22c-3.4,2.28-4.1,7.65-4.78,11.45-.85,4.72-.92,9.67-1.23,14.44-.13,2.07-.28,4.14-.39,6.22-3.56,1.36-7,3-10.54,4.6-.77.34-.18,1.34.52,1.24a69.65,69.65,0,0,0,9.88-2.48c0,1.25,0,2.5,0,3.75.08,4,.28,9.18,3.07,12.31a1.2,1.2,0,0,0,1.69,0c2.8-2.78,3.25-7.7,3.49-11.42.16-2.29.25-4.59.35-6.89,2.93-.63,5.89-1.17,8.87-1.58,0,1,0,1.91,0,2.87,0,2.68-.1,6.82,2.14,8.72a1.24,1.24,0,0,0,1.71,0c2.06-1.74,2.08-5.37,2.28-7.85.12-1.47.24-3,.38-4.42h.13C105.7,69.57,106.51,66,104,65.58Z"/><path class="cls-3" d="M56.43,113.91a23.17,23.17,0,0,1-1.78-8.07c0-2.46,1.81-5.93,4.75-4.61,3.64,1.63,6.25,8.32,7.18,12a.43.43,0,0,0,.84-.11c.34-6.15-3.83-19.54-12.54-15.53-9.28,4.28-5.54,18.47-2.8,25.73a79.64,79.64,0,0,1,3.49,11.52,39.27,39.27,0,0,1,.81,6.2c0,1,.08,1.94.07,2.92a18.1,18.1,0,0,0,0,2.45,21.2,21.2,0,0,1-.54,2.19,5.71,5.71,0,0,1-.29.87c-.57.71-2.22,1.59-.19.74a13.6,13.6,0,0,1-3.59,1.22c-5.53.61-5.71-8.88-7-12.72-.2-.57-1.16-.7-1.29,0-.8,4.22.56,8.75,2.71,12.39,2.48,4.22,4.7,8.38,10.38,8.1,5.52-.28,9.59-2.35,11.75-7.74,1.78-4.45.79-9.84-.73-14.2C64.75,129,59.57,122,56.43,113.91Zm-.84,35.52c0,.1,0,.08,0,0Z"/><path class="cls-3" d="M94,100.76c-4.52,1.51-7.15,6.51-8.82,10.6-2.21,5.43-3.44,11.12-5,16.76-.06.2-.11.4-.16.61-.3-4.82-.51-9.64-.71-14.5s-6.68-4.54-7.21,0c-1,8.67.45,17.74,1.41,26.36.49,4.39,1,8.78,1.26,13.18.29,4.15-.22,8.54.7,12.59.75,3.29,5.41,3,6.33,0,1.23-4,.62-8.52.39-12.59-.08-1.4-.19-2.81-.31-4.21a12.07,12.07,0,0,0,7.87-1.81c5.78-3.62,8.14-10.88,9.51-17.15,1.73-7.91,3.65-18.13,1.31-26.08C99.69,101.47,97.1,99.71,94,100.76ZM82.31,138.09q1.64-8.64,4-17.16A52,52,0,0,1,91,108.79c.8-1.4,4.59-6.53,5.81-3.22C99.38,112.62,91.36,145,82.31,138.09Z"/><path class="cls-3" d="M133.93,92.78c-7.1-.89-12.55,8.82-15.34,13.87a78.24,78.24,0,0,0-4,8.44l.06-.82c.42-4.88.92-9.93-.31-14.72a2.67,2.67,0,0,0-4.83-.64c-5.08,8.57-4.9,21.16-4.55,30.83a111.94,111.94,0,0,0,1.69,15.17c.86,4.83,1.93,9.91,6.14,12.87a1.56,1.56,0,0,0,2.28-.92c1.52-4.15.29-8.46-.36-12.69a78.27,78.27,0,0,1-.81-10.28,2.77,2.77,0,0,0,1-.5,61.22,61.22,0,0,1,5.63-3.69c2,2.71,1.53,8.36,1.65,11.83.19,5.58,2.78,17.63,11,14.95a3.56,3.56,0,0,0,2.61-3.41c-.27-3.3-2.39-6-3.16-9.21-.82-3.41-1-7-1.85-10.33-.68-2.62-1.76-5.8-3.72-7.82.69-.46,1.38-.94,2-1.44a28.23,28.23,0,0,0,8.66-11.22C139.89,108.15,142.12,93.8,133.93,92.78Zm-2,21c-3.73,5.88-10.13,8.45-16,11.61,1.09-3.28,2.16-6.56,3.55-9.68,2.67-6,6.1-13,11.51-17,2.82-2,3.74-1.15,4.29,2.14C136,105.46,134.38,109.92,132,113.76Z"/><path class="cls-3" d="M155,106.65a1.18,1.18,0,0,0-1.62.07c-2.74,2.39-2.14,7.47-2.41,10.78-.38,4.74-.68,9.49-1.09,14.23-.64,7.31-1.8,14.76-1.93,22.1-.1,5.4,7.69,4.74,8.16-.33.69-7.37,1.51-14.64,1.6-22.08.06-4.73.15-9.46,0-14.18C157.53,114,157.92,108.86,155,106.65Z"/><path class="cls-3" d="M155.79,94.65a5.2,5.2,0,0,0-6.33,1q-.44.57-.84,1.17c.26-.36.52-.72.77-1.09a5.35,5.35,0,1,0,6.4-1Z"/><path class="cls-3" d="M191.52,97c-2.85.69-5,3.77-6.64,6a65.66,65.66,0,0,0-7.27,13.45c-.46,1.07-.89,2.15-1.31,3.23.11-3,.17-6,.22-9.07.06-4.52.41-9.45-1.44-13.63-1.12-2.55-5.59-2.56-6.73,0-1.89,4.23-1.42,9.05-1.49,13.62-.07,4.87.16,9.75.39,14.62s.51,9.82.76,14.73c.17,3.3-.6,7.46.22,10.62,1.09,4.2,7.28,2.42,6.44-1.77.37,1.84.37-2.17.39-2.54q.09-3.15.19-6.3c0-.74.06-1.48.09-2.22,1.62-4.46,3.44-8.88,5.14-13.18,2.83-7.16,5.22-15.55,10.52-21.36,3.24-3.56,2.25,2.05,1.9,4.21-.74,4.58-2.49,9-3.69,13.48a125.36,125.36,0,0,0-3.69,27.36c-.89,3.28,1.65,7.16,4.81,8,4.42,1.23,8.1-2.14,8.44-6.4.91-11.47,1.75-22.92,2.23-34.41C201.22,110.15,200.15,94.84,191.52,97Z"/><path class="cls-3" d="M235.1,154.47a124.21,124.21,0,0,0-1.79-16.88c-.07-.45-.12-1.52-.23-2.77.12-1.21.21-2.41.27-3.57.41-4.66-6.82-6.59-8.85-2.42-2.23,4.57-2.64,9.79-5.28,14.15a2.54,2.54,0,0,1-1.07,1.06,3.89,3.89,0,0,1-1.92.31c-.48,0-.46-.12-.4-.09a5.11,5.11,0,0,1-1.65-1.28c-5-5-6-14.8-5.82-21.54s2.3-16.11,6.77-21.31c3.27-3.8,7.39-.6,9.42,2.73a29.84,29.84,0,0,1,3.21,8.2c.45,1.75,1.61,5.28,1,7-.46,1.29,1.8,1.87,2,.56.43-2.77,1-4.64.48-7.55a34,34,0,0,0-3.58-10c-2.17-4.06-6.83-7.59-11.61-6-4.6,1.54-6.84,7.18-8.32,11.32a52.8,52.8,0,0,0-3.17,14.14,94.76,94.76,0,0,0,.21,14.59c.5,5.38,1.23,11.36,4.65,15.73,3.81,4.87,10.86,5.3,15.66,1.61a16.71,16.71,0,0,0,3.8-4.17,68.42,68.42,0,0,1-.15,8.35,15.19,15.19,0,0,1-1.28,5.44,4.44,4.44,0,0,1-1.74,1.88c-.95.39-3.32-2.19-1.78-.13a3.34,3.34,0,0,0-4.46-1.18l-.12.08a3.47,3.47,0,0,0-.71,5.38c3,3.22,9,3.93,12.23.61C234.71,164.71,235.23,159.81,235.1,154.47Z"/></g><path class="cls-10" d="M199.46,63.59c-2.62,2.86-5.09,6.09-8.54,8a31.26,31.26,0,0,0,.33-12.52c-.52-2.79-2.43-7.5-5.92-7.28s-5.28,4.94-6.12,7.7a14.93,14.93,0,0,0,1.45,12.58,9.38,9.38,0,0,0,4.3,3.58c-1.66,2.18-4.33,4.33-6.85,2.9-2.89-1.64-3.16-6.33-3-9.22.08-1.8,1-3.85,1.35-5.65.39-2.13.57-4.51,1.77-6.32,2.55-3.86-3.17-8.16-6.32-4.9-3.87,4-3.68,9.83-2.68,14.93,0,.09-.08.18-.12.26A26.94,26.94,0,0,1,163.39,76a9.6,9.6,0,0,1-1.83,1.37,4.49,4.49,0,0,1-.82.11,2.91,2.91,0,0,1-1.9-.61c-.84-1.37-1.85-2.61-2.64-4.07-1.48-2.7-.59-6.83-.38-9.75.09-1.26.15-2.52.2-3.78.43-.54.88-1.07,1.35-1.6a48.41,48.41,0,0,0,9.84-16.7c2-5.78,6.09-23.08-3.78-24.4-4.84-.64-8.38,4.42-10.13,8.23-3,6.55-4.17,13.8-5,20.91a84.82,84.82,0,0,0-.2,21.71,2.5,2.5,0,0,0,.06.38q-1.4,2.53-3,5c-.17.26-.34.51-.5.77l-.13.15c-2.66,3.4-6.61,5.87-9.56.86-1-1.63-.91-3.84-1-5.66-.24-3.31.08-6.68,0-10,0-.23,0-.46,0-.69.66-.76,1.33-1.51,2-2.26,7.16-8,12.64-19.88,11.45-30.89-.39-3.6-2.53-8-6.84-7.43-3.91.52-6.41,5.16-8.13,8.26-6.84,12.35-7.31,26.69-6.85,40.5a20.69,20.69,0,0,0,.21,2.36c-2,3.3-4.06,6.68-7.11,9-1.57.23-3.1.41-4.45-.81-.68-.63-.81-2.21-1.09-3a8.47,8.47,0,0,1-.36-1.87,10.07,10.07,0,0,0,1.88-1.2c3.15-2.57,5.09-6.16,6.51-9.91,1.23-3.26,1.52-8.19-1.1-10.93s-5.71-1.28-7.91,1c-4.94,5.08-7.69,13.3-7.84,20.25-.1,4.77,1.66,9.2,6.3,10.62,8.92,2.72,14.25-8,15.69-10.65a18.76,18.76,0,0,0,3.46,6.75c2.13,2.62,6.24,4.82,9.36,3.24a15.41,15.41,0,0,0,5.1-4.15.76.76,0,0,0,.08-.11,36.87,36.87,0,0,0,4.45-6.35c1.13,3.7,2.94,7.18,6.29,9,1.71,1.52,4.45,1.93,7.38.52,3.53-1.71,5.75-6,7.47-9.39a24.6,24.6,0,0,0,3.38,9,8,8,0,0,0,10.65,2.52,12.77,12.77,0,0,0,5.35-5.85A9.24,9.24,0,0,0,193.14,75c3.79-2.28,5.76-6.89,7.29-10.82C200.64,63.61,199.84,63.18,199.46,63.59Zm-83.57-11.8c1.74-1.28,2.5.79,2.81,2.14.4,1.71-.23,3.58-.73,5.2a19.91,19.91,0,0,1-4.52,7.66,11.39,11.39,0,0,1-.86.8c.06-3.4.53-6.91.91-10.19C113.71,55.53,114.28,53,115.89,51.79ZM161.22,25c.43-1.25,1.1-3.44,2.69-3.45,2.07,0,2.48,3.64,2.6,5,.47,5.27-1.16,11-3,15.87a53.5,53.5,0,0,1-7.37,12.75,103.29,103.29,0,0,1,.92-12.62A100.15,100.15,0,0,1,161.22,25ZM134.3,49c.26-3.26.71-6.52,1.21-9.75s.62-6.64,1.11-9.93A20.09,20.09,0,0,1,138.19,23c1.12-2.25,3.62-3.49,5.26-1,2.2,3.34,1,8.84.47,12.52a46.91,46.91,0,0,1-7.38,18.81c-.85,1.24-1.73,2.45-2.63,3.65C133.92,54.3,134.08,51.64,134.3,49Zm50.81,6.23c2.39-2.75,4.06,6,4.1,7.16A20.73,20.73,0,0,1,187,72.09c-2.84-1-4.58-5.19-4.67-8.1C182.24,61.27,183.31,57.3,185.11,55.22Z"/><path class="cls-10" d="M102.44,64l-.3,0,.09-.92c.3-2.93,1-5.84,1.19-8.78.14-2.22.78-5.74-.54-7.68a2,2,0,0,0-2.19-.89c-2.68.79-3.32,4.08-3.64,6.5-.4,3-.92,6.06-1.29,9.1-.15,1.21-.26,2.42-.34,3.62-.5.12-1,.24-1.48.34-2.47.49-4.93,1-7.39,1.5,0-.93.09-1.86.15-2.79q.42-6.69,1-13.37c.37-4,3.35-8.3,1.19-12.21a3.37,3.37,0,0,0-4.59-1.22c-3.4,2.29-4.11,7.65-4.79,11.45-.84,4.72-.91,9.67-1.22,14.44-.13,2.07-.28,4.14-.39,6.22-3.56,1.36-7,3-10.55,4.6-.76.34-.17,1.34.52,1.24a70.13,70.13,0,0,0,9.89-2.48c0,1.25,0,2.5,0,3.75.09,4,.29,9.18,3.08,12.31a1.2,1.2,0,0,0,1.69,0C85.35,85.9,85.79,81,86,77.26c.15-2.29.25-4.59.35-6.89,2.92-.63,5.89-1.17,8.87-1.58,0,.95,0,1.91,0,2.87,0,2.68-.1,6.82,2.14,8.72a1.24,1.24,0,0,0,1.71,0c2.06-1.74,2.08-5.37,2.28-7.85.11-1.47.24-3,.37-4.42h.14C104.11,68,104.92,64.37,102.44,64Z"/><path class="cls-10" d="M54.84,112.31a23.17,23.17,0,0,1-1.78-8.07c0-2.46,1.81-5.93,4.75-4.61,3.64,1.63,6.25,8.32,7.18,12a.43.43,0,0,0,.84-.11c.34-6.15-3.83-19.54-12.54-15.53-9.29,4.28-5.55,18.47-2.8,25.73A80.92,80.92,0,0,1,54,133.19a40.47,40.47,0,0,1,.81,6.2c.05,1,.08,1.94.06,2.92a19.32,19.32,0,0,0,0,2.45c-.13.74-.35,1.47-.54,2.19a7.25,7.25,0,0,1-.29.87c-.58.71-2.22,1.59-.19.74a14,14,0,0,1-3.59,1.23c-5.53.6-5.71-8.89-7-12.73-.19-.57-1.15-.7-1.28,0-.8,4.22.56,8.75,2.7,12.39,2.49,4.22,4.71,8.38,10.39,8.1,5.51-.28,9.59-2.35,11.74-7.74,1.79-4.45.8-9.84-.73-14.2C63.16,127.41,58,120.35,54.84,112.31ZM54,147.84c0,.09,0,.07,0,0Z"/><path class="cls-10" d="M92.38,99.16c-4.51,1.51-7.14,6.51-8.81,10.6-2.22,5.43-3.45,11.12-5,16.76l-.15.61c-.31-4.82-.52-9.64-.71-14.5s-6.69-4.54-7.21,0c-1,8.67.44,17.74,1.41,26.36.49,4.39,1,8.78,1.26,13.18.29,4.15-.23,8.54.7,12.59.75,3.29,5.41,3,6.33,0,1.22-4,.61-8.51.39-12.59-.08-1.41-.19-2.81-.31-4.21a12.1,12.1,0,0,0,7.87-1.81c5.78-3.61,8.14-10.88,9.51-17.15,1.73-7.91,3.65-18.13,1.31-26.08C98.1,99.87,95.51,98.11,92.38,99.16ZM80.72,136.49c1.08-5.76,2.43-11.47,4-17.16a52.91,52.91,0,0,1,4.63-12.14c.8-1.4,4.59-6.53,5.82-3.22C97.79,111,89.77,143.36,80.72,136.49Z"/><path class="cls-10" d="M132.34,91.18c-7.1-.89-12.55,8.82-15.34,13.87a78.24,78.24,0,0,0-4,8.44l.06-.82c.42-4.88.92-9.93-.31-14.72a2.67,2.67,0,0,0-4.83-.64c-5.08,8.57-4.91,21.16-4.55,30.83a108.83,108.83,0,0,0,1.69,15.17c.86,4.83,1.93,9.91,6.14,12.87a1.56,1.56,0,0,0,2.28-.92c1.51-4.15.29-8.46-.36-12.69a75,75,0,0,1-.81-10.28,2.92,2.92,0,0,0,1-.49,58.07,58.07,0,0,1,5.63-3.7c2,2.71,1.52,8.37,1.65,11.83.19,5.58,2.77,17.63,11,14.95a3.54,3.54,0,0,0,2.61-3.41c-.26-3.3-2.39-6-3.15-9.21-.82-3.41-1-6.95-1.85-10.33-.68-2.62-1.77-5.8-3.72-7.82.69-.46,1.38-.94,2-1.44a28.23,28.23,0,0,0,8.66-11.22C138.3,106.55,140.53,92.2,132.34,91.18Zm-2,21c-3.74,5.88-10.13,8.45-16.05,11.61,1.09-3.28,2.16-6.56,3.55-9.68,2.67-6,6.09-13,11.51-17,2.81-2,3.73-1.15,4.29,2.14C134.45,103.86,132.79,108.32,130.36,112.16Z"/><path class="cls-10" d="M153.41,105.05a1.18,1.18,0,0,0-1.62.07c-2.74,2.39-2.14,7.47-2.41,10.78-.38,4.74-.68,9.49-1.1,14.23-.64,7.31-1.79,14.77-1.93,22.1-.1,5.4,7.7,4.74,8.17-.33.69-7.37,1.51-14.64,1.6-22.08.06-4.73.15-9.46-.05-14.18C155.94,112.35,156.33,107.26,153.41,105.05Z"/><path class="cls-10" d="M154.2,93.05a6.37,6.37,0,0,0-2.83-.66A4.82,4.82,0,0,0,147.86,94c-.29.38-.56.77-.83,1.17l.77-1.09a5.35,5.35,0,1,0,6.4-1Z"/><path class="cls-10" d="M189.92,95.35c-2.84.7-5,3.77-6.63,6A65.92,65.92,0,0,0,176,114.76c-.46,1.07-.9,2.15-1.31,3.23q.15-4.53.21-9.07c.07-4.52.41-9.45-1.43-13.63-1.13-2.55-5.59-2.56-6.73,0-1.89,4.23-1.43,9.06-1.49,13.62-.07,4.87.15,9.75.39,14.62s.51,9.82.76,14.73c.17,3.31-.61,7.46.21,10.62,1.1,4.2,7.29,2.42,6.45-1.77.37,1.84.37-2.17.38-2.54q.1-3.15.19-6.3c0-.74.07-1.48.1-2.22,1.61-4.46,3.44-8.88,5.13-13.18,2.84-7.16,5.22-15.55,10.53-21.36,3.24-3.56,2.25,2,1.9,4.21-.74,4.58-2.49,9-3.69,13.48a126,126,0,0,0-3.7,27.36c-.88,3.28,1.66,7.16,4.82,8,4.42,1.23,8.09-2.14,8.43-6.4.92-11.46,1.76-22.92,2.24-34.41C199.63,108.55,198.56,93.24,189.92,95.35Z"/><path class="cls-10" d="M233.51,152.87A124.21,124.21,0,0,0,231.72,136c-.07-.45-.12-1.52-.24-2.77.13-1.21.22-2.41.28-3.57.41-4.66-6.82-6.59-8.85-2.42-2.23,4.57-2.64,9.79-5.28,14.15a2.6,2.6,0,0,1-1.07,1.06,3.93,3.93,0,0,1-1.93.31c-.47,0-.45-.12-.39-.09a5,5,0,0,1-1.65-1.28c-5-5-6-14.8-5.83-21.54s2.31-16.11,6.77-21.31c3.27-3.8,7.39-.6,9.43,2.73a30.16,30.16,0,0,1,3.21,8.2c.45,1.75,1.6,5.28,1,7-.46,1.29,1.8,1.87,2,.56.44-2.77,1-4.65.49-7.55a34,34,0,0,0-3.58-10c-2.18-4.06-6.83-7.59-11.61-6-4.61,1.54-6.84,7.18-8.33,11.32A53.17,53.17,0,0,0,203,118.92a94.74,94.74,0,0,0,.21,14.59c.5,5.38,1.23,11.36,4.65,15.74,3.81,4.86,10.86,5.29,15.66,1.6a16.71,16.71,0,0,0,3.8-4.17,70.48,70.48,0,0,1-.15,8.35,15,15,0,0,1-1.29,5.44,4.42,4.42,0,0,1-1.73,1.88c-1,.39-3.32-2.19-1.78-.13a3.34,3.34,0,0,0-4.46-1.18l-.13.08a3.46,3.46,0,0,0-.7,5.38c3,3.22,9,3.93,12.23.61C233.12,163.11,233.64,158.21,233.51,152.87Z"/><circle class="cls-10" cx="207.68" cy="89.34" r="1.5"/><circle class="cls-10" cx="219.68" cy="71.34" r="2"/><path class="cls-11" d="M208.85,36.54c4-1.17,10.54-.1,13.14,3.44,3.2,4.36-1.26,6.49-5,4.57,5,3.34,1.88,9.67-2.14,4.56,3.38,7.07-7,8.78-9.31,1.68a15.91,15.91,0,0,1,1.21-12.61c-3,5.12-8.81,10.24-15.16,9.51-7.17-.82-5.22-4.78-1.21-8.19-5.24.56-6.4-6.86-1.37-5.8-2.92-.52-4-3.66-2.84-6.14,1.92-4.13,6-2.81,9.3-1.57,4.84,1.79,7.91,5.23,10.54,9.54"/><path class="cls-11" d="M206.92,36.84c5.48-.37,14.13-4.38,15-10.41.74-5-3.21-5.08-6.41-2.43,5.56-4.23-3.67-9.45-5.14-2.87,2-4.13-3.83-3.82-5.61-1.1-2.95,4.5-.79,13.21.68,17.83"/><path class="cls-12" d="M205.66,37.78a1.82,1.82,0,1,1,2.54-.37A1.83,1.83,0,0,1,205.66,37.78Z"/><path class="cls-13" d="M214.49,37.64c-1.84-1-4.77-2.51-6.62-.8A.11.11,0,0,0,208,37c2.14-.94,4.43,0,6.45.77a.09.09,0,1,0,.06-.16Z"/><path class="cls-13" d="M211.09,40.2a15.22,15.22,0,0,1-1.59-1.42,8,8,0,0,1-1.23-2c0-.06-.14,0-.13,0A6.33,6.33,0,0,0,211,40.32a.08.08,0,0,0,.09-.12Z"/><path class="cls-13" d="M209,42.82a9.78,9.78,0,0,1-1.47-2.49,5.56,5.56,0,0,1-.48-1.68c-.06-.47.18-.79.27-1.22a.1.1,0,0,0-.12-.11c-1,.15-.57,1.78-.37,2.38a11.19,11.19,0,0,0,2,3.29c.11.15.35,0,.22-.17Z"/><path class="cls-13" d="M206.48,37.13c-2,.91-2.55,2.66-2.46,4.74,0,.09.14.09.15,0a5.78,5.78,0,0,1,2.42-4.55c.11-.06,0-.24-.11-.19Z"/><path class="cls-13" d="M205.63,36.54c-1.65-.8-3.59.16-4.72,1.43a.12.12,0,0,0,.15.18c1.43-.74,2.73-1.84,4.45-1.3a.17.17,0,0,0,.12-.31Z"/><path class="cls-13" d="M205.76,35.46a6.44,6.44,0,0,1-3.29-3.19c0-.07-.14-.05-.15,0-.09,1.76,2,2.85,3.33,3.46.18.08.28-.2.11-.29Z"/><path class="cls-13" d="M207.08,35a4.14,4.14,0,0,1-.8-3.86.08.08,0,0,0-.13-.09c-1.3,1-.26,3.26.75,4.14.11.09.28-.08.18-.19Z"/><path class="cls-13" d="M207.55,35.41a3.3,3.3,0,0,1,2-2.45.06.06,0,0,0,0-.12,3,3,0,0,0-2.29,2.46c-.05.18.22.29.27.11Z"/><path class="cls-13" d="M208,36a4.65,4.65,0,0,1,3.06-1.52.12.12,0,0,0,0-.23,3.17,3.17,0,0,0-3.32,1.55c-.1.18.15.38.27.2Z"/><path class="cls-13" d="M209,32.29a.75.75,0,0,0,1.2.9.75.75,0,0,0-1.2-.9Z"/><path class="cls-13" d="M210.89,33.87a.6.6,0,0,0,1,.72.6.6,0,0,0-1-.72Z"/><path class="cls-13" d="M210.51,40a.57.57,0,0,0,.91.68.57.57,0,0,0-.91-.68Z"/><path class="cls-13" d="M210.43,35.89a.64.64,0,0,0-.25.6.53.53,0,0,0,.59.43.62.62,0,0,0,.5-.4.55.55,0,0,0-.84-.63Z"/><path class="cls-13" d="M214.24,37.37a.64.64,0,0,0-.25.6.53.53,0,0,0,.59.43.62.62,0,0,0,.5-.4.55.55,0,0,0-.84-.63Z"/><path class="cls-13" d="M209.16,41.92a.87.87,0,0,0-.78.34.69.69,0,0,0,.14.94l0,0-.23-.29a1.82,1.82,0,0,0,.15.23.77.77,0,1,0,.69-1.24Z"/><path class="cls-13" d="M203.65,40.85a.69.69,0,0,0,1.1.83.69.69,0,0,0-1.1-.83Z"/><path class="cls-13" d="M206.55,38.88a.71.71,0,0,0-.45.58.58.58,0,0,0,.12.42s.44.36.19.17a.68.68,0,1,0,.14-1.17Z"/><path class="cls-13" d="M202.53,36.38v0a.65.65,0,0,0,.89.66h.05a.68.68,0,1,0-.94-.7Z"/><path class="cls-13" d="M200.64,37.43a.53.53,0,0,0,.84.63.53.53,0,0,0-.84-.63Z"/><path class="cls-13" d="M201.84,32.86l0,.1a.44.44,0,0,0,.49.37h.11c1.7-.06-1.07-2.12-.63-.47Z"/><path class="cls-13" d="M205.09,31.25v0a.84.84,0,0,0,0,.66.92.92,0,0,0,.72.53h0c.68.16,1.17-.68.93-1.25a.93.93,0,0,0-.73-.55.94.94,0,0,0-.95.57Z"/><path class="cls-13" d="M201.62,32l0,0a.81.81,0,1,0,1.52.58v0a.83.83,0,0,0-.47-1.05.81.81,0,0,0-1,.46Z"/><path class="cls-13" d="M204.58,34.41l-.16-.16c-.55-.53-1.38.57-.71,1l.2.11a.59.59,0,0,0,.67-.9Z"/><path class="cls-13" d="M208.26,33.72a.73.73,0,0,0-.83.22.49.49,0,0,0,.1.67c.05,0,.22.19.09.07l-.18-.64h0a.58.58,0,0,0,.09.58l0,.05a.62.62,0,1,0,.71-1Z"/><path class="cls-13" d="M208.24,36a.76.76,0,0,0-1.2,0l.26-.2-.05,0c-.35.2-.56.79-.12,1.05l.06.06s.52.18.24.1a.77.77,0,0,0,.69-.1.68.68,0,0,0,.12-.94Z"/><circle class="cls-10" cx="156.16" cy="174.67" r="2"/><circle class="cls-10" cx="156.68" cy="57.84" r="1.5"/><circle class="cls-10" cx="193.68" cy="21.34" r="2"/><circle class="cls-10" cx="96.18" cy="35.84" r="1.5"/><circle class="cls-10" cx="72.68" cy="94.34" r="2"/><path class="cls-7" d="M81.62,91.15a7.72,7.72,0,0,1,.1-4.91c0-.14-.16-.3-.27-.17-2.12,2.52-.74,5.62,1,8.05a24,24,0,0,1-3.63-3.32,40.13,40.13,0,0,1-3-3.86,12.55,12.55,0,0,1-.12-3.19.15.15,0,0,0-.28-.09A3.27,3.27,0,0,0,75,85.75c-.65-1-1.26-2.06-1.83-3.13-.11-.22-.44-.05-.34.18.25.51.5,1,.77,1.58a4.65,4.65,0,0,0-2.23-.29c-.15,0-.14.25,0,.29.5.16,1,.23,1.52.36a3.94,3.94,0,0,1,1.22.64,40.77,40.77,0,0,0,3.2,5.34,13.79,13.79,0,0,0-6.39-1.81.17.17,0,0,0-.06.32c1.2.46,2.47.72,3.7,1.07a18.13,18.13,0,0,1,3.78,1.76c2.12,2.56,4.72,4.58,8,5.14.24,0,.42-.27.19-.41-1-.62-2-1.24-3-1.91A20.89,20.89,0,0,1,81.62,91.15Z"/><path class="cls-7" d="M71.44,87.84A2.3,2.3,0,0,1,69,91.73a2.3,2.3,0,1,1,2.44-3.89Z"/><path class="cls-7" d="M71,82.45a2.3,2.3,0,1,1-3.17.72A2.29,2.29,0,0,1,71,82.45Z"/><path class="cls-7" d="M73.72,78.82a2.3,2.3,0,1,1-3.17.72A2.31,2.31,0,0,1,73.72,78.82Z"/><path class="cls-7" d="M77.92,81.53a2.3,2.3,0,1,1-3.17.72A2.31,2.31,0,0,1,77.92,81.53Z"/><path class="cls-7" d="M83.12,84.8a2.3,2.3,0,1,1-3.17.72A2.3,2.3,0,0,1,83.12,84.8Z"/><path class="cls-14" d="M71,91.21a1.41,1.41,0,0,1-1.17-.1,3.17,3.17,0,0,1-.46-.36c-.13-.12-.19-.27-.36-.35a.3.3,0,0,0-.45.17c-.14.56.44.92.91,1.06a2.49,2.49,0,0,0,1.63-.18.13.13,0,0,0-.1-.24Z"/><path class="cls-14" d="M69,90c-.08-.23,0-.45-.23-.63a.11.11,0,0,0-.16,0,.69.69,0,0,0,0,.79c.11.22.48.08.41-.15Z"/><path class="cls-14" d="M70.49,85.89a2.05,2.05,0,0,1-1.36-.37c-.41-.26-.45-.72-.67-1.12a.36.36,0,0,0-.68.16,1.59,1.59,0,0,0,.9,1.41,2.94,2.94,0,0,0,1.83.17c.14,0,.12-.26,0-.25Z"/><path class="cls-14" d="M68.27,84.11c.06-.18.19-.3.16-.5a.11.11,0,0,0-.16-.07c-.23.09-.21.33-.2.54a.1.1,0,0,0,.2,0Z"/><path class="cls-14" d="M71.22,80.74a2,2,0,0,1,.55-.9c.15-.16.43-.32.24-.56a.24.24,0,0,0-.24-.08c-.67.19-.76.91-.78,1.5a.12.12,0,0,0,.23,0Z"/><path class="cls-14" d="M72.11,79.37s0-.05,0,0,0,.05,0,0Z"/><path class="cls-14" d="M72.49,79.47c.24,0,.49-.06.73-.09.07,0,.06-.11,0-.13a1.37,1.37,0,0,0-.8-.09c-.21,0-.13.35.07.31Z"/><path class="cls-14" d="M76,81.7a1.77,1.77,0,0,1,1.09.41c.31.21.47.52.87.58.22,0,.37-.18.4-.37.07-.53-.55-.79-1-.88a3.94,3.94,0,0,0-1.41,0c-.12,0-.1.22,0,.21Z"/><path class="cls-14" d="M78.22,83.48a.58.58,0,0,0-.08.22.21.21,0,0,0,.4.12,1,1,0,0,0,0-.17c0-.22-.25-.37-.36-.17Z"/><path class="cls-14" d="M80.78,85.82a1.06,1.06,0,0,1,1-.15c.34.07.71.3,1.06.21a.32.32,0,0,0,.21-.45c-.19-.44-.88-.56-1.31-.55a1.47,1.47,0,0,0-1.18.72c-.12.16.12.36.27.22Z"/><path class="cls-14" d="M83.57,86.4a.57.57,0,0,0,.15.43.09.09,0,0,0,.14,0,1.72,1.72,0,0,0,0-.39c0-.21-.33-.22-.33,0Z"/><circle class="cls-7" cx="152.84" cy="41.5" r="2"/><circle class="cls-7" cx="97.27" cy="160.69" r="2.67"/><circle class="cls-7" cx="53.57" cy="63.39" r="2.92"/><path class="cls-15" d="M61.05,40.56a12.37,12.37,0,0,1-2.84-8.36c.09-1,.7-3.1,2-1.58.18-.75.81-1.25,1.34-.59.77-1.08,1.75,0,2.09.88.5,1.28.1,2.88-.21,4.14-.45,1.8-1.24,3.5-1.64,5.31a22.11,22.11,0,0,1,5.63-4.73c1.39-.75,5.05-.38,2.54,1.41,1-.33,1.93.26.9,1.07,1.93-.16,2.41.91.86,2a10.64,10.64,0,0,1-4.48,1.57c-1.65.19-4.68.24-6.05-.84"/><path class="cls-15" d="M61.13,41.07a12.42,12.42,0,0,1,7.32,5c.52.83,1.31,2.89-.61,2.44.31.7.11,1.48-.71,1.28,0,1.32-1.42,1-2.19.56-1.18-.71-1.83-2.24-2.34-3.43-.73-1.71-1.13-3.53-1.9-5.22a22.58,22.58,0,0,1-1.63,7.18c-.66,1.43-3.8,3.35-2.88.41-.55.83-1.69,1-1.36-.31-1.44,1.29-2.47.73-1.9-1.09a10.6,10.6,0,0,1,2.62-4c1.19-1.15,3.59-3,5.33-3"/><path class="cls-15" d="M61.54,41a15.87,15.87,0,0,0-7.77-5.62c-.62-.16-2.52-.73-3,.06s.6,1.56,1.25,1.77c-.95-.14-2.1.61-.88,1.26-1.12-.11-1.23.68-.82,1.51.7,1.44,3,1.24,4.44,1.34,2.3.17,4.77.88,6.94-.22"/><circle class="cls-10" cx="60.66" cy="40.66" r="1.46"/></g></g></g></svg>