<svg xmlns="http://www.w3.org/2000/svg" viewBox="0 0 172.64 172.64"><defs><style>.cls-1{fill:#2ab673;stroke:#221e1f;stroke-miterlimit:10;}.cls-2{fill:#004622;}</style></defs><title>sec1-3</title><g id="圖層_2" data-name="圖層 2"><g id="Layer_1" data-name="Layer 1"><circle class="cls-1" cx="86.32" cy="86.32" r="85.82"/><path class="cls-2" d="M73.67,19a151.63,151.63,0,0,0,6.6,22.89q2.36,7.64,26.27,22.89,19.2,12.48,19.2,30.42,0,14.86-13.68,27.44h-2q5-11.3,5-19.81v-1.49q0-24.77-27.26-38.64v.49q18.2,18.33,18.2,39.14,0,12.78-5.11,20.81H88.83l-1-.5q1-2.67,1-10.6v-3.57a71.67,71.67,0,0,0-14.07-43.2H73.67q6.6,22,6.6,39.14-.69,19.82-2.56,19.82a114.76,114.76,0,0,0-12.6,1Q50.55,113,50.55,97.25q0-11.49,9.54-30.52H59.6l-1-.49q-13.69,21-13.68,36.56v2.57q0,16.56,17.71,28.94v1.09q-20,0-31.3-24.48a29,29,0,0,1-2.06-11.69v-.5q0-13.86,11.12-29.92h-.49Q25.74,87.74,25.74,103.89v1q0,10.91,9.65,21.8H34.9q-17.71-11.4-17.72-27.95V95.17q0-16.45,30.31-42.61,7.59-8.62,7.58-31Q56.84,20.65,73.67,19ZM155,107.35l.49,1.09q0,.7-6,2-4.05,0-4,22.89-8.86,27.44-33.86,27.44H108q-21.84,0-35.33-18.82a45,45,0,0,1-.49-6.54v-3.57q0-2.39,41.43-3.07,18.8-2.68,23.72-8.13,1.47-.59,6.5-9.71Q147.78,107.35,155,107.35Zm-15.65,24q-11.13,17.74-31.79,17.74h-1q-12.89,0-24.7-8.13l-.59,3.57v1q16.25,10.22,27.26,10.21h5.61q18.1,0,27.26-23.39h-.49Z"/></g></g></svg>