<svg xmlns="http://www.w3.org/2000/svg" viewBox="0 0 172.64 172.64"><defs><style>.cls-1{fill:#2ab673;stroke:#221e1f;stroke-miterlimit:10;}.cls-2{fill:#004622;}</style></defs><title>sec1-1</title><g id="圖層_2" data-name="圖層 2"><g id="Layer_1" data-name="Layer 1"><circle class="cls-1" cx="86.32" cy="86.32" r="85.82"/><path class="cls-2" d="M98.23,13.62h1.38q11.61,0,14.27,29.33c-.46,4-.69,6.3-.69,6.83l15.55,72.33-2.66,2.09q-8.65-3-8.86-3.37-4.52,0-5.41,8.82,0,2.78,4.13,17v1.38c-.78,5-3.28,7.53-7.48,7.53h-.69q-9.54-1.18-9.54-9.51v-.69q0-2.39,4.82-19.12v-1.39q-1.38-9.51-3.44-9.51a6.61,6.61,0,0,0-4,3.37v4.06q2.66,11.1,2.66,12.28c-1.31,3.24-3.35,4.86-6.1,4.86q-6.8-1.38-6.79-6.84l3.44-13v-2.77q0-7.53-7.48-7.53a260.84,260.84,0,0,0-29.13-9.51,11,11,0,0,1-4.72,1.38Q21,96.65,21,84q6.2-24.78,25.79-45.78Q72.05,16.4,98.23,13.62ZM30.42,85.26q0,2.37,17,7.53,1.56,0,4.72-8.82Q44,78.62,44,77.82q.2-1.38,1.38-1.38h.69a41.63,41.63,0,0,0,8.76,1.38A100.71,100.71,0,0,1,65.06,63.46q-6.8-11.7-6.79-13a4.6,4.6,0,0,1,2.07-.7q3.24,0,13.48,6.84,11.61-8.92,17-8.92l-2.76-9.51,1.38-.69c4.07,3.36,6.1,6.11,6.1,8.22A51.76,51.76,0,0,1,105,44.33v-.69q-2.65-21.1-6.79-21.11-26,5.05-44,20.42Q33,67.22,30.42,85.26ZM71.16,80.5v2.08q0,5.64,6.8,6.84h2q6.8-1.4,6.79-6.84V80.5q0-5.75-8.07-7.53C73.66,74.55,71.16,77.07,71.16,80.5ZM97.64,66.83c0,1.65,1.11,3,3.34,4.16,2,0,3.61-1.39,4.73-4.16q0-4.06-4.73-4.07Q97.64,62.76,97.64,66.83Zm1.28,29.42q1.38,6.15,6.1,6.15,6.11,0,6.1-6.15c0-1.85-1.34-3.66-4-5.45H105Q100.49,90.8,98.92,96.25Z"/></g></g></svg>