<svg xmlns="http://www.w3.org/2000/svg" viewBox="0 0 172.64 172.64"><defs><style>.cls-1{fill:#2ab673;stroke:#221e1f;stroke-miterlimit:10;}.cls-2{fill:#004622;}</style></defs><title>sec1-2</title><g id="圖層_2" data-name="圖層 2"><g id="Layer_1" data-name="Layer 1"><circle class="cls-1" cx="86.32" cy="86.32" r="85.82"/><path class="cls-2" d="M158.07,46.34h.69v2.18Q158.76,63.58,125,99h-.79a4.93,4.93,0,0,0-2.16-.79q-2.26,3.68-5.22,3.67a.62.62,0,0,0-.69-.7q-8.46,9.81-22,24.48Q116.74,141,119.78,147.8a34.69,34.69,0,0,1,.79,5.95c-1,2.24-2,3.46-2.95,3.66h-2.27q-10.14,0-23.52-23.68l-3-2.28q-2,1-9.55,13.38Q70,156.72,66.83,156.72H60.24c-1.51-.53-2.26-2-2.26-4.46q0-11,23.62-24.47l2.16-3q-21.65-23-22.83-23-3.45,0-11-13.28c-.73,0-1.71-1-3-3-3.67,1-5.61,1.48-5.8,1.48q-5.22,0-21.36-18.53-5.91-4.65-5.91-7.43l1.48-.69A105.62,105.62,0,0,0,34.45,79.63l1.48-2.18L14.57,55.26l1.48-.8L38.19,76c.13-1,.63-1.49,1.48-1.49q0-2-15.45-16.35L19,52.29V50.8h.79L41.15,72.2h.69L43.31,70,24.91,50.8h2.26Q50.69,71,50.69,77.45l-1.47,6A117.32,117.32,0,0,0,65.36,95.19q0,5.64,11,13.38,0,.78,12.5,11.79,24.3-20.82,24.31-25.17c0-.26,1.21-1.49,3.64-3.67A1.31,1.31,0,0,1,115.35,90v-.8Q133.86,69.73,158.07,46.34ZM91.14,15.23q22.24,0,31.59,12.58a5,5,0,0,0,.79,2.18q-2,6.73-6.69,6.74c-.26,0-3.45-.26-9.55-.79-2.42.72-3.64,2.47-3.64,5.25v2.87q0,4.95,5.12,14.07c-.46,0-.69.27-.69.79q-7.08-2.18-18.4-2.18A71,71,0,0,0,63.88,61.9c0-.53-.23-.8-.69-.8q3.65-13.27,3.64-14.76V44.06q0-4.37-3.64-4.36l-11.81.69q-3-3.06-3-5.94,0-13.19,34.64-19.22ZM84.55,77.45h1.38c.72,0,1.47.73,2.26,2.18v3c0,.73-.75,1.49-2.26,2.28H81.6a22.51,22.51,0,0,1-11.13-3V80.43H74.9Q76.88,80.43,84.55,77.45ZM80.12,64.87h.69c.72,0,1.48.73,2.26,2.18,0,.73-.75,1.48-2.26,2.28h-.69c-.72,0-1.48-.76-2.26-2.28C77.86,66.32,78.61,65.6,80.12,64.87Zm12.5,12.58a24.38,24.38,0,0,1,8.76,2.18l4.43-.69h1.47q0,3.86-14.66,5.94c-2-.79-3-1.55-3-2.28v-3C89.67,78.44,90.65,77.72,92.62,77.45Zm2.16-13.37h1.48c1,.19,1.48.69,1.48,1.48v1.49a1.31,1.31,0,0,1-1.48,1.48H94.78a1.3,1.3,0,0,1-1.47-1.48V65.56C93.5,64.57,94,64.08,94.78,64.08Z"/></g></g></svg>